<svg xmlns="http://www.w3.org/2000/svg" width="448" height="128" class="svgbob">
  <style>.svgbob line, .svgbob path, .svgbob circle, .svgbob rect, .svgbob polygon {
  stroke: black;
  stroke-width: 2;
  stroke-opacity: 1;
  fill-opacity: 1;
  stroke-linecap: round;
  stroke-linejoin: miter;
}

.svgbob text {
  white-space: pre;
  fill: black;
  font-family: Iosevka Fixed, monospace;
  font-size: 14px;
}

.svgbob rect.backdrop {
  stroke: none;
  fill: white;
}

.svgbob .broken {
  stroke-dasharray: 8;
}

.svgbob .filled {
  fill: black;
}

.svgbob .bg_filled {
  fill: white;
  stroke-width: 1;
}

.svgbob .nofill {
  fill: white;
}

.svgbob .end_marked_arrow {
  marker-end: url(#arrow);
}

.svgbob .start_marked_arrow {
  marker-start: url(#arrow);
}

.svgbob .end_marked_diamond {
  marker-end: url(#diamond);
}

.svgbob .start_marked_diamond {
  marker-start: url(#diamond);
}

.svgbob .end_marked_circle {
  marker-end: url(#circle);
}

.svgbob .start_marked_circle {
  marker-start: url(#circle);
}

.svgbob .end_marked_open_circle {
  marker-end: url(#open_circle);
}

.svgbob .start_marked_open_circle {
  marker-start: url(#open_circle);
}

.svgbob .end_marked_big_open_circle {
  marker-end: url(#big_open_circle);
}

.svgbob .start_marked_big_open_circle {
  marker-start: url(#big_open_circle);
}

</style>
  <defs>
    <marker id="arrow" viewBox="-2 -2 8 8" refX="4" refY="2" markerWidth="7" markerHeight="7" orient="auto-start-reverse">
      <polygon points="0,0 0,4 4,2 0,0"></polygon>
    </marker>
    <marker id="diamond" viewBox="-2 -2 8 8" refX="4" refY="2" markerWidth="7" markerHeight="7" orient="auto-start-reverse">
      <polygon points="0,2 2,0 4,2 2,4 0,2"></polygon>
    </marker>
    <marker id="circle" viewBox="0 0 8 8" refX="4" refY="4" markerWidth="7" markerHeight="7" orient="auto-start-reverse">
      <circle cx="4" cy="4" r="2" class="filled"></circle>
    </marker>
    <marker id="open_circle" viewBox="0 0 8 8" refX="4" refY="4" markerWidth="7" markerHeight="7" orient="auto-start-reverse">
      <circle cx="4" cy="4" r="2" class="bg_filled"></circle>
    </marker>
    <marker id="big_open_circle" viewBox="0 0 8 8" refX="4" refY="4" markerWidth="7" markerHeight="7" orient="auto-start-reverse">
      <circle cx="4" cy="4" r="3" class="bg_filled"></circle>
    </marker>
  </defs>
  <rect class="backdrop" x="0" y="0" width="448" height="128"></rect>
  <polygon points="40,20 48,24 40,28" class="filled"></polygon>
  <polygon points="144,20 152,24 144,28" class="filled"></polygon>
  <polygon points="232,20 240,24 232,28" class="filled"></polygon>
  <polygon points="40,68 48,72 40,76" class="filled"></polygon>
  <polygon points="144,68 152,72 144,76" class="filled"></polygon>
  <line x1="0" y1="88" x2="40" y2="88" class="solid"></line>
  <polygon points="40,84 48,88 40,92" class="filled"></polygon>
  <polygon points="144,84 152,88 144,92" class="filled"></polygon>
  <polygon points="232,84 240,88 232,92" class="filled"></polygon>
  <polygon points="312,20 320,24 312,28" class="filled"></polygon>
  <polygon points="432,20 440,24 432,28" class="filled"></polygon>
  <polygon points="312,68 320,72 312,76" class="filled"></polygon>
  <line x1="272" y1="88" x2="312" y2="88" class="solid"></line>
  <polygon points="312,84 320,88 312,92" class="filled"></polygon>
  <polygon points="432,84 440,88 432,92" class="filled"></polygon>
  <text x="250" y="28" >..</text>
  <text x="250" y="92" >..</text>
  <text x="10" y="12" >x</text>
  <text x="114" y="12" >hâ‚</text>
  <text x="210" y="12" >hâ‚‚</text>
  <text x="274" y="12" >hâ‚™â‚‹â‚</text>
  <text x="394" y="12" >y</text>
  <text x="66" y="28" >fÂ¹</text>
  <text x="170" y="28" >fÂ²</text>
  <text x="338" y="28" >fá´º</text>
  <text x="58" y="76" >ğ’ŸfÂ¹</text>
  <text x="162" y="76" >ğ’ŸfÂ²</text>
  <text x="330" y="76" >ğ’Ÿfá´º</text>
  <text x="10" y="108" >v</text>
  <text x="378" y="108" >ğ’Ÿfâ‚“(v)</text>
  <g>
    <line x1="52" y1="8" x2="100" y2="8" class="solid"></line>
    <line x1="52" y1="8" x2="52" y2="40" class="solid"></line>
    <line x1="100" y1="8" x2="100" y2="40" class="solid"></line>
    <line x1="100" y1="24" x2="144" y2="24" class="solid"></line>
    <line x1="124" y1="24" x2="124" y2="72" class="solid"></line>
    <line x1="52" y1="40" x2="100" y2="40" class="solid"></line>
    <line x1="124" y1="72" x2="144" y2="72" class="solid"></line>
  </g>
  <g>
    <line x1="156" y1="8" x2="204" y2="8" class="solid"></line>
    <line x1="156" y1="8" x2="156" y2="40" class="solid"></line>
    <line x1="204" y1="8" x2="204" y2="40" class="solid"></line>
    <line x1="204" y1="24" x2="232" y2="24" class="solid"></line>
    <line x1="156" y1="40" x2="204" y2="40" class="solid"></line>
  </g>
  <g>
    <line x1="0" y1="24" x2="40" y2="24" class="solid"></line>
    <line x1="20" y1="24" x2="20" y2="72" class="solid"></line>
    <line x1="20" y1="72" x2="40" y2="72" class="solid"></line>
  </g>
  <g>
    <line x1="52" y1="56" x2="100" y2="56" class="solid"></line>
    <line x1="52" y1="56" x2="52" y2="104" class="solid"></line>
    <line x1="100" y1="56" x2="100" y2="104" class="solid"></line>
    <line x1="100" y1="88" x2="144" y2="88" class="solid"></line>
    <line x1="52" y1="104" x2="100" y2="104" class="solid"></line>
  </g>
  <g>
    <line x1="156" y1="56" x2="204" y2="56" class="solid"></line>
    <line x1="156" y1="56" x2="156" y2="104" class="solid"></line>
    <line x1="204" y1="56" x2="204" y2="104" class="solid"></line>
    <line x1="204" y1="88" x2="232" y2="88" class="solid"></line>
    <line x1="156" y1="104" x2="204" y2="104" class="solid"></line>
  </g>
  <g>
    <line x1="324" y1="8" x2="372" y2="8" class="solid"></line>
    <line x1="324" y1="8" x2="324" y2="40" class="solid"></line>
    <line x1="372" y1="8" x2="372" y2="40" class="solid"></line>
    <line x1="372" y1="24" x2="432" y2="24" class="solid"></line>
    <line x1="324" y1="40" x2="372" y2="40" class="solid"></line>
  </g>
  <g>
    <line x1="272" y1="24" x2="312" y2="24" class="solid"></line>
    <line x1="292" y1="24" x2="292" y2="72" class="solid"></line>
    <line x1="292" y1="72" x2="312" y2="72" class="solid"></line>
  </g>
  <g>
    <line x1="324" y1="56" x2="372" y2="56" class="solid"></line>
    <line x1="324" y1="56" x2="324" y2="104" class="solid"></line>
    <line x1="372" y1="56" x2="372" y2="104" class="solid"></line>
    <line x1="372" y1="88" x2="432" y2="88" class="solid"></line>
    <line x1="324" y1="104" x2="372" y2="104" class="solid"></line>
  </g>
</svg>
