<svg xmlns="http://www.w3.org/2000/svg" width="472" height="128" class="svgbob">
  <style>.svgbob line, .svgbob path, .svgbob circle, .svgbob rect, .svgbob polygon {
  stroke: black;
  stroke-width: 2;
  stroke-opacity: 1;
  fill-opacity: 1;
  stroke-linecap: round;
  stroke-linejoin: miter;
}

.svgbob text {
  white-space: pre;
  fill: black;
  font-family: Iosevka Fixed, monospace;
  font-size: 14px;
}

.svgbob rect.backdrop {
  stroke: none;
  fill: white;
}

.svgbob .broken {
  stroke-dasharray: 8;
}

.svgbob .filled {
  fill: black;
}

.svgbob .bg_filled {
  fill: white;
  stroke-width: 1;
}

.svgbob .nofill {
  fill: white;
}

.svgbob .end_marked_arrow {
  marker-end: url(#arrow);
}

.svgbob .start_marked_arrow {
  marker-start: url(#arrow);
}

.svgbob .end_marked_diamond {
  marker-end: url(#diamond);
}

.svgbob .start_marked_diamond {
  marker-start: url(#diamond);
}

.svgbob .end_marked_circle {
  marker-end: url(#circle);
}

.svgbob .start_marked_circle {
  marker-start: url(#circle);
}

.svgbob .end_marked_open_circle {
  marker-end: url(#open_circle);
}

.svgbob .start_marked_open_circle {
  marker-start: url(#open_circle);
}

.svgbob .end_marked_big_open_circle {
  marker-end: url(#big_open_circle);
}

.svgbob .start_marked_big_open_circle {
  marker-start: url(#big_open_circle);
}

</style>
  <defs>
    <marker id="arrow" viewBox="-2 -2 8 8" refX="4" refY="2" markerWidth="7" markerHeight="7" orient="auto-start-reverse">
      <polygon points="0,0 0,4 4,2 0,0"></polygon>
    </marker>
    <marker id="diamond" viewBox="-2 -2 8 8" refX="4" refY="2" markerWidth="7" markerHeight="7" orient="auto-start-reverse">
      <polygon points="0,2 2,0 4,2 2,4 0,2"></polygon>
    </marker>
    <marker id="circle" viewBox="0 0 8 8" refX="4" refY="4" markerWidth="7" markerHeight="7" orient="auto-start-reverse">
      <circle cx="4" cy="4" r="2" class="filled"></circle>
    </marker>
    <marker id="open_circle" viewBox="0 0 8 8" refX="4" refY="4" markerWidth="7" markerHeight="7" orient="auto-start-reverse">
      <circle cx="4" cy="4" r="2" class="bg_filled"></circle>
    </marker>
    <marker id="big_open_circle" viewBox="0 0 8 8" refX="4" refY="4" markerWidth="7" markerHeight="7" orient="auto-start-reverse">
      <circle cx="4" cy="4" r="3" class="bg_filled"></circle>
    </marker>
  </defs>
  <rect class="backdrop" x="0" y="0" width="472" height="128"></rect>
  <polygon points="72,20 80,24 72,28" class="filled"></polygon>
  <polygon points="184,20 192,24 184,28" class="filled"></polygon>
  <polygon points="280,20 288,24 280,28" class="filled"></polygon>
  <polygon points="72,68 80,72 72,76" class="filled"></polygon>
  <polygon points="184,68 192,72 184,76" class="filled"></polygon>
  <polygon points="8,84 0,88 8,92" class="filled"></polygon>
  <polygon points="152,84 144,88 152,92" class="filled"></polygon>
  <polygon points="264,84 256,88 264,92" class="filled"></polygon>
  <line x1="264" y1="88" x2="288" y2="88" class="solid"></line>
  <polygon points="360,20 368,24 360,28" class="filled"></polygon>
  <polygon points="456,20 464,24 456,28" class="filled"></polygon>
  <polygon points="360,68 368,72 360,76" class="filled"></polygon>
  <polygon points="328,84 320,88 328,92" class="filled"></polygon>
  <polygon points="440,84 432,88 440,92" class="filled"></polygon>
  <line x1="440" y1="88" x2="464" y2="88" class="solid"></line>
  <text x="298" y="28" >..</text>
  <text x="298" y="92" >..</text>
  <text x="34" y="12" >x</text>
  <text x="154" y="12" >hâ‚</text>
  <text x="258" y="12" >hâ‚‚</text>
  <text x="322" y="12" >hâ‚™â‚‹â‚</text>
  <text x="442" y="12" >y</text>
  <text x="106" y="28" >fÂ¹</text>
  <text x="218" y="28" >fÂ²</text>
  <text x="394" y="28" >fâ¿</text>
  <text x="90" y="76" >ğ’Ÿáµ€fÂ¹</text>
  <text x="202" y="76" >ğ’Ÿáµ€fÂ²</text>
  <text x="378" y="76" >ğ’Ÿáµ€fâ¿</text>
  <text x="2" y="108" >ğ’Ÿáµ€fâ‚“(w)</text>
  <text x="442" y="108" >w</text>
  <g>
    <line x1="84" y1="8" x2="140" y2="8" class="solid"></line>
    <line x1="84" y1="8" x2="84" y2="40" class="solid"></line>
    <line x1="140" y1="8" x2="140" y2="40" class="solid"></line>
    <line x1="140" y1="24" x2="184" y2="24" class="solid"></line>
    <line x1="164" y1="24" x2="164" y2="72" class="solid"></line>
    <line x1="84" y1="40" x2="140" y2="40" class="solid"></line>
    <line x1="164" y1="72" x2="184" y2="72" class="solid"></line>
  </g>
  <g>
    <line x1="196" y1="8" x2="252" y2="8" class="solid"></line>
    <line x1="196" y1="8" x2="196" y2="40" class="solid"></line>
    <line x1="252" y1="8" x2="252" y2="40" class="solid"></line>
    <line x1="252" y1="24" x2="280" y2="24" class="solid"></line>
    <line x1="196" y1="40" x2="252" y2="40" class="solid"></line>
  </g>
  <g>
    <line x1="0" y1="24" x2="72" y2="24" class="solid"></line>
    <line x1="52" y1="24" x2="52" y2="72" class="solid"></line>
    <line x1="52" y1="72" x2="72" y2="72" class="solid"></line>
  </g>
  <g>
    <line x1="84" y1="56" x2="140" y2="56" class="solid"></line>
    <line x1="84" y1="56" x2="84" y2="104" class="solid"></line>
    <line x1="140" y1="56" x2="140" y2="104" class="solid"></line>
    <line x1="8" y1="88" x2="84" y2="88" class="solid"></line>
    <line x1="84" y1="104" x2="140" y2="104" class="solid"></line>
  </g>
  <g>
    <line x1="196" y1="56" x2="252" y2="56" class="solid"></line>
    <line x1="196" y1="56" x2="196" y2="104" class="solid"></line>
    <line x1="252" y1="56" x2="252" y2="104" class="solid"></line>
    <line x1="152" y1="88" x2="196" y2="88" class="solid"></line>
    <line x1="196" y1="104" x2="252" y2="104" class="solid"></line>
  </g>
  <g>
    <line x1="372" y1="8" x2="428" y2="8" class="solid"></line>
    <line x1="372" y1="8" x2="372" y2="40" class="solid"></line>
    <line x1="428" y1="8" x2="428" y2="40" class="solid"></line>
    <line x1="428" y1="24" x2="456" y2="24" class="solid"></line>
    <line x1="372" y1="40" x2="428" y2="40" class="solid"></line>
  </g>
  <g>
    <line x1="320" y1="24" x2="360" y2="24" class="solid"></line>
    <line x1="340" y1="24" x2="340" y2="72" class="solid"></line>
    <line x1="340" y1="72" x2="360" y2="72" class="solid"></line>
  </g>
  <g>
    <line x1="372" y1="56" x2="428" y2="56" class="solid"></line>
    <line x1="372" y1="56" x2="372" y2="104" class="solid"></line>
    <line x1="428" y1="56" x2="428" y2="104" class="solid"></line>
    <line x1="328" y1="88" x2="372" y2="88" class="solid"></line>
    <line x1="372" y1="104" x2="428" y2="104" class="solid"></line>
  </g>
</svg>
